<?xml version="1.0" encoding="UTF-8"?>
<!DOCTYPE svg PUBLIC "-//W3C//DTD SVG 1.1//EN"
    "http://www.w3.org/Graphics/SVG/1.1/DTD/svg11.dtd"><svg xmlns="http://www.w3.org/2000/svg" height="400.0000" stroke-opacity="1" viewBox="0 0 400 400" font-size="1" width="400.0000" xmlns:xlink="http://www.w3.org/1999/xlink" stroke="rgb(0,0,0)" version="1.1"><defs></defs><g stroke-linejoin="miter" stroke-opacity="1.0" fill-opacity="1.0" stroke="rgb(0,0,0)" stroke-width="3.0" fill="rgb(255,235,205)" stroke-linecap="butt" stroke-miterlimit="10.0"><path d="M 400.0000,400.0000 l -0.0000,-66.6667 h -66.6667 l -0.0000,66.6667 Z"/></g><g stroke-linejoin="miter" stroke-opacity="1.0" fill-opacity="1.0" stroke="rgb(0,0,0)" stroke-width="3.0" fill="rgb(255,235,205)" stroke-linecap="butt" stroke-miterlimit="10.0"><path d="M 333.3333,400.0000 l -0.0000,-66.6667 h -66.6667 l -0.0000,66.6667 Z"/></g><g stroke-linejoin="miter" stroke-opacity="1.0" fill-opacity="1.0" stroke="rgb(0,0,0)" stroke-width="3.0" fill="rgb(255,235,205)" stroke-linecap="butt" stroke-miterlimit="10.0"><path d="M 266.6667,400.0000 l -0.0000,-66.6667 h -66.6667 l -0.0000,66.6667 Z"/></g><g stroke-linejoin="miter" stroke-opacity="1.0" fill-opacity="1.0" stroke="rgb(0,0,0)" stroke-width="3.0" fill="rgb(255,235,205)" stroke-linecap="butt" stroke-miterlimit="10.0"><path d="M 200.0000,400.0000 l -0.0000,-66.6667 h -66.6667 l -0.0000,66.6667 Z"/></g><g stroke-linejoin="miter" stroke-opacity="1.0" fill-opacity="1.0" stroke="rgb(0,0,0)" stroke-width="3.0" fill="rgb(255,235,205)" stroke-linecap="butt" stroke-miterlimit="10.0"><path d="M 133.3333,400.0000 l -0.0000,-66.6667 h -66.6667 l -0.0000,66.6667 Z"/></g><g stroke-linejoin="miter" stroke-opacity="1.0" fill-opacity="1.0" stroke="rgb(0,0,0)" stroke-width="3.0" fill="rgb(255,235,205)" stroke-linecap="butt" stroke-miterlimit="10.0"><path d="M 66.6667,400.0000 l -0.0000,-66.6667 h -66.6667 l -0.0000,66.6667 Z"/></g><g stroke-linejoin="miter" stroke-opacity="1.0" fill-opacity="1.0" stroke="rgb(0,0,0)" stroke-width="3.0" fill="rgb(255,235,205)" stroke-linecap="butt" stroke-miterlimit="10.0"><path d="M 400.0000,333.3333 l -0.0000,-66.6667 h -66.6667 l -0.0000,66.6667 Z"/></g><g stroke-linejoin="miter" stroke-opacity="1.0" fill-opacity="1.0" stroke="rgb(0,0,0)" stroke-width="3.0" fill="rgb(255,235,205)" stroke-linecap="butt" stroke-miterlimit="10.0"><path d="M 333.3333,333.3333 l -0.0000,-66.6667 h -66.6667 l -0.0000,66.6667 Z"/></g><g stroke-linejoin="miter" stroke-opacity="1.0" fill-opacity="1.0" stroke="rgb(0,0,0)" stroke-width="3.0" fill="rgb(255,235,205)" stroke-linecap="butt" stroke-miterlimit="10.0"><path d="M 266.6667,333.3333 l -0.0000,-66.6667 h -66.6667 l -0.0000,66.6667 Z"/></g><g stroke-linejoin="miter" stroke-opacity="1.0" fill-opacity="1.0" stroke="rgb(0,0,0)" stroke-width="3.0" fill="rgb(255,235,205)" stroke-linecap="butt" stroke-miterlimit="10.0"><path d="M 200.0000,333.3333 l -0.0000,-66.6667 h -66.6667 l -0.0000,66.6667 Z"/></g><g stroke-linejoin="miter" stroke-opacity="1.0" fill-opacity="1.0" stroke="rgb(0,0,0)" stroke-width="3.0" fill="rgb(255,235,205)" stroke-linecap="butt" stroke-miterlimit="10.0"><path d="M 133.3333,333.3333 l -0.0000,-66.6667 h -66.6667 l -0.0000,66.6667 Z"/></g><g stroke-linejoin="miter" stroke-opacity="1.0" fill-opacity="1.0" stroke="rgb(0,0,0)" stroke-width="3.0" fill="rgb(255,235,205)" stroke-linecap="butt" stroke-miterlimit="10.0"><path d="M 66.6667,333.3333 l -0.0000,-66.6667 h -66.6667 l -0.0000,66.6667 Z"/></g><g stroke-linejoin="miter" stroke-opacity="1.0" fill-opacity="1.0" stroke="rgb(0,0,0)" stroke-width="3.0" fill="rgb(255,235,205)" stroke-linecap="butt" stroke-miterlimit="10.0"><path d="M 400.0000,266.6667 l -0.0000,-66.6667 h -66.6667 l -0.0000,66.6667 Z"/></g><g stroke-linejoin="miter" stroke-opacity="1.0" fill-opacity="1.0" stroke="rgb(0,0,0)" stroke-width="3.0" fill="rgb(255,235,205)" stroke-linecap="butt" stroke-miterlimit="10.0"><path d="M 333.3333,266.6667 l -0.0000,-66.6667 h -66.6667 l -0.0000,66.6667 Z"/></g><g stroke-linejoin="miter" stroke-opacity="1.0" fill-opacity="1.0" stroke="rgb(0,0,0)" stroke-width="3.0" fill="rgb(255,235,205)" stroke-linecap="butt" stroke-miterlimit="10.0"><path d="M 266.6667,266.6667 l -0.0000,-66.6667 h -66.6667 l -0.0000,66.6667 Z"/></g><g stroke-linejoin="miter" stroke-opacity="1.0" fill-opacity="1.0" stroke="rgb(0,0,0)" stroke-width="3.0" fill="rgb(255,235,205)" stroke-linecap="butt" stroke-miterlimit="10.0"><path d="M 200.0000,266.6667 l -0.0000,-66.6667 h -66.6667 l -0.0000,66.6667 Z"/></g><g stroke-linejoin="miter" stroke-opacity="1.0" fill-opacity="1.0" stroke="rgb(0,0,0)" stroke-width="3.0" fill="rgb(255,235,205)" stroke-linecap="butt" stroke-miterlimit="10.0"><path d="M 133.3333,266.6667 l -0.0000,-66.6667 h -66.6667 l -0.0000,66.6667 Z"/></g><g stroke-linejoin="miter" stroke-opacity="1.0" fill-opacity="1.0" stroke="rgb(0,0,0)" stroke-width="3.0" fill="rgb(255,235,205)" stroke-linecap="butt" stroke-miterlimit="10.0"><path d="M 66.6667,266.6667 l -0.0000,-66.6667 h -66.6667 l -0.0000,66.6667 Z"/></g><g stroke-linejoin="miter" stroke-opacity="1.0" fill-opacity="1.0" stroke="rgb(0,0,0)" stroke-width="3.0" fill="rgb(255,235,205)" stroke-linecap="butt" stroke-miterlimit="10.0"><path d="M 400.0000,200.0000 l -0.0000,-66.6667 h -66.6667 l -0.0000,66.6667 Z"/></g><g stroke-linejoin="miter" stroke-opacity="1.0" fill-opacity="1.0" stroke="rgb(0,0,0)" stroke-width="3.0" fill="rgb(255,235,205)" stroke-linecap="butt" stroke-miterlimit="10.0"><path d="M 333.3333,200.0000 l -0.0000,-66.6667 h -66.6667 l -0.0000,66.6667 Z"/></g><g stroke-linejoin="miter" stroke-opacity="1.0" fill-opacity="1.0" stroke="rgb(0,0,0)" stroke-width="3.0" fill="rgb(255,235,205)" stroke-linecap="butt" stroke-miterlimit="10.0"><path d="M 266.6667,200.0000 l -0.0000,-66.6667 h -66.6667 l -0.0000,66.6667 Z"/></g><g stroke-linejoin="miter" stroke-opacity="1.0" fill-opacity="1.0" stroke="rgb(0,0,0)" stroke-width="3.0" fill="rgb(255,235,205)" stroke-linecap="butt" stroke-miterlimit="10.0"><path d="M 200.0000,200.0000 l -0.0000,-66.6667 h -66.6667 l -0.0000,66.6667 Z"/></g><g stroke-linejoin="miter" stroke-opacity="1.0" fill-opacity="1.0" stroke="rgb(0,0,0)" stroke-width="3.0" fill="rgb(255,235,205)" stroke-linecap="butt" stroke-miterlimit="10.0"><path d="M 133.3333,200.0000 l -0.0000,-66.6667 h -66.6667 l -0.0000,66.6667 Z"/></g><g stroke-linejoin="miter" stroke-opacity="1.0" fill-opacity="1.0" stroke="rgb(0,0,0)" stroke-width="3.0" fill="rgb(255,235,205)" stroke-linecap="butt" stroke-miterlimit="10.0"><path d="M 66.6667,200.0000 l -0.0000,-66.6667 h -66.6667 l -0.0000,66.6667 Z"/></g><g stroke-linejoin="miter" stroke-opacity="1.0" fill-opacity="1.0" stroke="rgb(0,0,0)" stroke-width="3.0" fill="rgb(255,235,205)" stroke-linecap="butt" stroke-miterlimit="10.0"><path d="M 400.0000,133.3333 l -0.0000,-66.6667 h -66.6667 l -0.0000,66.6667 Z"/></g><g stroke-linejoin="miter" stroke-opacity="1.0" fill-opacity="1.0" stroke="rgb(0,0,0)" stroke-width="3.0" fill="rgb(255,235,205)" stroke-linecap="butt" stroke-miterlimit="10.0"><path d="M 333.3333,133.3333 l -0.0000,-66.6667 h -66.6667 l -0.0000,66.6667 Z"/></g><g stroke-linejoin="miter" stroke-opacity="1.0" fill-opacity="1.0" stroke="rgb(0,0,0)" stroke-width="3.0" fill="rgb(255,235,205)" stroke-linecap="butt" stroke-miterlimit="10.0"><path d="M 266.6667,133.3333 l -0.0000,-66.6667 h -66.6667 l -0.0000,66.6667 Z"/></g><g stroke-linejoin="miter" stroke-opacity="1.0" fill-opacity="1.0" stroke="rgb(0,0,0)" stroke-width="3.0" fill="rgb(255,235,205)" stroke-linecap="butt" stroke-miterlimit="10.0"><path d="M 200.0000,133.3333 l -0.0000,-66.6667 h -66.6667 l -0.0000,66.6667 Z"/></g><g stroke-linejoin="miter" stroke-opacity="1.0" fill-opacity="1.0" stroke="rgb(0,0,0)" stroke-width="3.0" fill="rgb(255,235,205)" stroke-linecap="butt" stroke-miterlimit="10.0"><path d="M 133.3333,133.3333 l -0.0000,-66.6667 h -66.6667 l -0.0000,66.6667 Z"/></g><g stroke-linejoin="miter" stroke-opacity="1.0" fill-opacity="1.0" stroke="rgb(0,0,0)" stroke-width="3.0" fill="rgb(255,235,205)" stroke-linecap="butt" stroke-miterlimit="10.0"><path d="M 66.6667,133.3333 l -0.0000,-66.6667 h -66.6667 l -0.0000,66.6667 Z"/></g><g stroke-linejoin="miter" stroke-opacity="1.0" fill-opacity="1.0" stroke="rgb(0,0,0)" stroke-width="3.0" fill="rgb(255,235,205)" stroke-linecap="butt" stroke-miterlimit="10.0"><path d="M 400.0000,66.6667 l -0.0000,-66.6667 h -66.6667 l -0.0000,66.6667 Z"/></g><g stroke-linejoin="miter" stroke-opacity="1.0" fill-opacity="1.0" stroke="rgb(0,0,0)" stroke-width="3.0" fill="rgb(255,235,205)" stroke-linecap="butt" stroke-miterlimit="10.0"><path d="M 333.3333,66.6667 l -0.0000,-66.6667 h -66.6667 l -0.0000,66.6667 Z"/></g><g stroke-linejoin="miter" stroke-opacity="1.0" fill-opacity="1.0" stroke="rgb(0,0,0)" stroke-width="3.0" fill="rgb(255,235,205)" stroke-linecap="butt" stroke-miterlimit="10.0"><path d="M 266.6667,66.6667 l -0.0000,-66.6667 h -66.6667 l -0.0000,66.6667 Z"/></g><g stroke-linejoin="miter" stroke-opacity="1.0" fill-opacity="1.0" stroke="rgb(0,0,0)" stroke-width="3.0" fill="rgb(255,235,205)" stroke-linecap="butt" stroke-miterlimit="10.0"><path d="M 200.0000,66.6667 l -0.0000,-66.6667 h -66.6667 l -0.0000,66.6667 Z"/></g><g stroke-linejoin="miter" stroke-opacity="1.0" fill-opacity="1.0" stroke="rgb(0,0,0)" stroke-width="3.0" fill="rgb(255,235,205)" stroke-linecap="butt" stroke-miterlimit="10.0"><path d="M 133.3333,66.6667 l -0.0000,-66.6667 h -66.6667 l -0.0000,66.6667 Z"/></g><g stroke-linejoin="miter" stroke-opacity="1.0" fill-opacity="1.0" stroke="rgb(0,0,0)" stroke-width="3.0" fill="rgb(255,235,205)" stroke-linecap="butt" stroke-miterlimit="10.0"><path d="M 66.6667,66.6667 l -0.0000,-66.6667 h -66.6667 l -0.0000,66.6667 Z"/></g><g stroke-linejoin="miter" stroke-opacity="1.0" fill-opacity="0.0" stroke="rgb(255,0,0)" stroke-width="1.5" fill="rgb(0,0,0)" stroke-linecap="butt" stroke-miterlimit="10.0"><path d="M 233.3333,100.0000 l 133.3333,-66.6667 "/></g><g stroke-linejoin="miter" stroke-opacity="1.0" fill-opacity="1.0" stroke="rgb(0,0,0)" stroke-width="0.0" fill="rgb(255,0,0)" stroke-linecap="butt" stroke-miterlimit="10.0"><path d="M 240.0000,100.0000 c 0.0000,-3.6819 -2.9848,-6.6667 -6.6667 -6.6667c -3.6819,-0.0000 -6.6667,2.9848 -6.6667 6.6667c -0.0000,3.6819 2.9848,6.6667 6.6667 6.6667c 3.6819,0.0000 6.6667,-2.9848 6.6667 -6.6667Z"/></g><g stroke-linejoin="miter" stroke-opacity="1.0" fill-opacity="1.0" stroke="rgb(0,0,0)" stroke-width="0.0" fill="rgb(255,0,0)" stroke-linecap="butt" stroke-miterlimit="10.0"><path d="M 373.3333,33.3333 c 0.0000,-3.6819 -2.9848,-6.6667 -6.6667 -6.6667c -3.6819,-0.0000 -6.6667,2.9848 -6.6667 6.6667c -0.0000,3.6819 2.9848,6.6667 6.6667 6.6667c 3.6819,0.0000 6.6667,-2.9848 6.6667 -6.6667Z"/></g><g stroke-linejoin="miter" stroke-opacity="1.0" fill-opacity="0.0" stroke="rgb(255,0,0)" stroke-width="1.5" fill="rgb(0,0,0)" stroke-linecap="butt" stroke-miterlimit="10.0"><path d="M 300.0000,166.6667 l 66.6667,-133.3333 "/></g><g stroke-linejoin="miter" stroke-opacity="1.0" fill-opacity="1.0" stroke="rgb(0,0,0)" stroke-width="0.0" fill="rgb(255,0,0)" stroke-linecap="butt" stroke-miterlimit="10.0"><path d="M 306.6667,166.6667 c 0.0000,-3.6819 -2.9848,-6.6667 -6.6667 -6.6667c -3.6819,-0.0000 -6.6667,2.9848 -6.6667 6.6667c -0.0000,3.6819 2.9848,6.6667 6.6667 6.6667c 3.6819,0.0000 6.6667,-2.9848 6.6667 -6.6667Z"/></g><g stroke-linejoin="miter" stroke-opacity="1.0" fill-opacity="1.0" stroke="rgb(0,0,0)" stroke-width="0.0" fill="rgb(255,0,0)" stroke-linecap="butt" stroke-miterlimit="10.0"><path d="M 373.3333,33.3333 c 0.0000,-3.6819 -2.9848,-6.6667 -6.6667 -6.6667c -3.6819,-0.0000 -6.6667,2.9848 -6.6667 6.6667c -0.0000,3.6819 2.9848,6.6667 6.6667 6.6667c 3.6819,0.0000 6.6667,-2.9848 6.6667 -6.6667Z"/></g><g stroke-linejoin="miter" stroke-opacity="1.0" fill-opacity="0.0" stroke="rgb(255,0,0)" stroke-width="1.5" fill="rgb(0,0,0)" stroke-linecap="butt" stroke-miterlimit="10.0"><path d="M 166.6667,100.0000 l 133.3333,-66.6667 "/></g><g stroke-linejoin="miter" stroke-opacity="1.0" fill-opacity="1.0" stroke="rgb(0,0,0)" stroke-width="0.0" fill="rgb(255,0,0)" stroke-linecap="butt" stroke-miterlimit="10.0"><path d="M 173.3333,100.0000 c 0.0000,-3.6819 -2.9848,-6.6667 -6.6667 -6.6667c -3.6819,-0.0000 -6.6667,2.9848 -6.6667 6.6667c -0.0000,3.6819 2.9848,6.6667 6.6667 6.6667c 3.6819,0.0000 6.6667,-2.9848 6.6667 -6.6667Z"/></g><g stroke-linejoin="miter" stroke-opacity="1.0" fill-opacity="1.0" stroke="rgb(0,0,0)" stroke-width="0.0" fill="rgb(255,0,0)" stroke-linecap="butt" stroke-miterlimit="10.0"><path d="M 306.6667,33.3333 c 0.0000,-3.6819 -2.9848,-6.6667 -6.6667 -6.6667c -3.6819,-0.0000 -6.6667,2.9848 -6.6667 6.6667c -0.0000,3.6819 2.9848,6.6667 6.6667 6.6667c 3.6819,0.0000 6.6667,-2.9848 6.6667 -6.6667Z"/></g><g stroke-linejoin="miter" stroke-opacity="1.0" fill-opacity="0.0" stroke="rgb(255,0,0)" stroke-width="1.5" fill="rgb(0,0,0)" stroke-linecap="butt" stroke-miterlimit="10.0"><path d="M 366.6667,166.6667 l -66.6667,-133.3333 "/></g><g stroke-linejoin="miter" stroke-opacity="1.0" fill-opacity="1.0" stroke="rgb(0,0,0)" stroke-width="0.0" fill="rgb(255,0,0)" stroke-linecap="butt" stroke-miterlimit="10.0"><path d="M 373.3333,166.6667 c 0.0000,-3.6819 -2.9848,-6.6667 -6.6667 -6.6667c -3.6819,-0.0000 -6.6667,2.9848 -6.6667 6.6667c -0.0000,3.6819 2.9848,6.6667 6.6667 6.6667c 3.6819,0.0000 6.6667,-2.9848 6.6667 -6.6667Z"/></g><g stroke-linejoin="miter" stroke-opacity="1.0" fill-opacity="1.0" stroke="rgb(0,0,0)" stroke-width="0.0" fill="rgb(255,0,0)" stroke-linecap="butt" stroke-miterlimit="10.0"><path d="M 306.6667,33.3333 c 0.0000,-3.6819 -2.9848,-6.6667 -6.6667 -6.6667c -3.6819,-0.0000 -6.6667,2.9848 -6.6667 6.6667c -0.0000,3.6819 2.9848,6.6667 6.6667 6.6667c 3.6819,0.0000 6.6667,-2.9848 6.6667 -6.6667Z"/></g><g stroke-linejoin="miter" stroke-opacity="1.0" fill-opacity="0.0" stroke="rgb(255,0,0)" stroke-width="1.5" fill="rgb(0,0,0)" stroke-linecap="butt" stroke-miterlimit="10.0"><path d="M 366.6667,100.0000 l -133.3333,-66.6667 "/></g><g stroke-linejoin="miter" stroke-opacity="1.0" fill-opacity="1.0" stroke="rgb(0,0,0)" stroke-width="0.0" fill="rgb(255,0,0)" stroke-linecap="butt" stroke-miterlimit="10.0"><path d="M 373.3333,100.0000 c 0.0000,-3.6819 -2.9848,-6.6667 -6.6667 -6.6667c -3.6819,-0.0000 -6.6667,2.9848 -6.6667 6.6667c -0.0000,3.6819 2.9848,6.6667 6.6667 6.6667c 3.6819,0.0000 6.6667,-2.9848 6.6667 -6.6667Z"/></g><g stroke-linejoin="miter" stroke-opacity="1.0" fill-opacity="1.0" stroke="rgb(0,0,0)" stroke-width="0.0" fill="rgb(255,0,0)" stroke-linecap="butt" stroke-miterlimit="10.0"><path d="M 240.0000,33.3333 c 0.0000,-3.6819 -2.9848,-6.6667 -6.6667 -6.6667c -3.6819,-0.0000 -6.6667,2.9848 -6.6667 6.6667c -0.0000,3.6819 2.9848,6.6667 6.6667 6.6667c 3.6819,0.0000 6.6667,-2.9848 6.6667 -6.6667Z"/></g><g stroke-linejoin="miter" stroke-opacity="1.0" fill-opacity="0.0" stroke="rgb(255,0,0)" stroke-width="1.5" fill="rgb(0,0,0)" stroke-linecap="butt" stroke-miterlimit="10.0"><path d="M 100.0000,100.0000 l 133.3333,-66.6667 "/></g><g stroke-linejoin="miter" stroke-opacity="1.0" fill-opacity="1.0" stroke="rgb(0,0,0)" stroke-width="0.0" fill="rgb(255,0,0)" stroke-linecap="butt" stroke-miterlimit="10.0"><path d="M 106.6667,100.0000 c 0.0000,-3.6819 -2.9848,-6.6667 -6.6667 -6.6667c -3.6819,-0.0000 -6.6667,2.9848 -6.6667 6.6667c -0.0000,3.6819 2.9848,6.6667 6.6667 6.6667c 3.6819,0.0000 6.6667,-2.9848 6.6667 -6.6667Z"/></g><g stroke-linejoin="miter" stroke-opacity="1.0" fill-opacity="1.0" stroke="rgb(0,0,0)" stroke-width="0.0" fill="rgb(255,0,0)" stroke-linecap="butt" stroke-miterlimit="10.0"><path d="M 240.0000,33.3333 c 0.0000,-3.6819 -2.9848,-6.6667 -6.6667 -6.6667c -3.6819,-0.0000 -6.6667,2.9848 -6.6667 6.6667c -0.0000,3.6819 2.9848,6.6667 6.6667 6.6667c 3.6819,0.0000 6.6667,-2.9848 6.6667 -6.6667Z"/></g><g stroke-linejoin="miter" stroke-opacity="1.0" fill-opacity="0.0" stroke="rgb(255,0,0)" stroke-width="1.5" fill="rgb(0,0,0)" stroke-linecap="butt" stroke-miterlimit="10.0"><path d="M 300.0000,100.0000 l -133.3333,-66.6667 "/></g><g stroke-linejoin="miter" stroke-opacity="1.0" fill-opacity="1.0" stroke="rgb(0,0,0)" stroke-width="0.0" fill="rgb(255,0,0)" stroke-linecap="butt" stroke-miterlimit="10.0"><path d="M 306.6667,100.0000 c 0.0000,-3.6819 -2.9848,-6.6667 -6.6667 -6.6667c -3.6819,-0.0000 -6.6667,2.9848 -6.6667 6.6667c -0.0000,3.6819 2.9848,6.6667 6.6667 6.6667c 3.6819,0.0000 6.6667,-2.9848 6.6667 -6.6667Z"/></g><g stroke-linejoin="miter" stroke-opacity="1.0" fill-opacity="1.0" stroke="rgb(0,0,0)" stroke-width="0.0" fill="rgb(255,0,0)" stroke-linecap="butt" stroke-miterlimit="10.0"><path d="M 173.3333,33.3333 c 0.0000,-3.6819 -2.9848,-6.6667 -6.6667 -6.6667c -3.6819,-0.0000 -6.6667,2.9848 -6.6667 6.6667c -0.0000,3.6819 2.9848,6.6667 6.6667 6.6667c 3.6819,0.0000 6.6667,-2.9848 6.6667 -6.6667Z"/></g><g stroke-linejoin="miter" stroke-opacity="1.0" fill-opacity="0.0" stroke="rgb(255,0,0)" stroke-width="1.5" fill="rgb(0,0,0)" stroke-linecap="butt" stroke-miterlimit="10.0"><path d="M 233.3333,166.6667 l -66.6667,-133.3333 "/></g><g stroke-linejoin="miter" stroke-opacity="1.0" fill-opacity="1.0" stroke="rgb(0,0,0)" stroke-width="0.0" fill="rgb(255,0,0)" stroke-linecap="butt" stroke-miterlimit="10.0"><path d="M 240.0000,166.6667 c 0.0000,-3.6819 -2.9848,-6.6667 -6.6667 -6.6667c -3.6819,-0.0000 -6.6667,2.9848 -6.6667 6.6667c -0.0000,3.6819 2.9848,6.6667 6.6667 6.6667c 3.6819,0.0000 6.6667,-2.9848 6.6667 -6.6667Z"/></g><g stroke-linejoin="miter" stroke-opacity="1.0" fill-opacity="1.0" stroke="rgb(0,0,0)" stroke-width="0.0" fill="rgb(255,0,0)" stroke-linecap="butt" stroke-miterlimit="10.0"><path d="M 173.3333,33.3333 c 0.0000,-3.6819 -2.9848,-6.6667 -6.6667 -6.6667c -3.6819,-0.0000 -6.6667,2.9848 -6.6667 6.6667c -0.0000,3.6819 2.9848,6.6667 6.6667 6.6667c 3.6819,0.0000 6.6667,-2.9848 6.6667 -6.6667Z"/></g><g stroke-linejoin="miter" stroke-opacity="1.0" fill-opacity="0.0" stroke="rgb(255,0,0)" stroke-width="1.5" fill="rgb(0,0,0)" stroke-linecap="butt" stroke-miterlimit="10.0"><path d="M 233.3333,100.0000 l -133.3333,-66.6667 "/></g><g stroke-linejoin="miter" stroke-opacity="1.0" fill-opacity="1.0" stroke="rgb(0,0,0)" stroke-width="0.0" fill="rgb(255,0,0)" stroke-linecap="butt" stroke-miterlimit="10.0"><path d="M 240.0000,100.0000 c 0.0000,-3.6819 -2.9848,-6.6667 -6.6667 -6.6667c -3.6819,-0.0000 -6.6667,2.9848 -6.6667 6.6667c -0.0000,3.6819 2.9848,6.6667 6.6667 6.6667c 3.6819,0.0000 6.6667,-2.9848 6.6667 -6.6667Z"/></g><g stroke-linejoin="miter" stroke-opacity="1.0" fill-opacity="1.0" stroke="rgb(0,0,0)" stroke-width="0.0" fill="rgb(255,0,0)" stroke-linecap="butt" stroke-miterlimit="10.0"><path d="M 106.6667,33.3333 c 0.0000,-3.6819 -2.9848,-6.6667 -6.6667 -6.6667c -3.6819,-0.0000 -6.6667,2.9848 -6.6667 6.6667c -0.0000,3.6819 2.9848,6.6667 6.6667 6.6667c 3.6819,0.0000 6.6667,-2.9848 6.6667 -6.6667Z"/></g><g stroke-linejoin="miter" stroke-opacity="1.0" fill-opacity="0.0" stroke="rgb(255,0,0)" stroke-width="1.5" fill="rgb(0,0,0)" stroke-linecap="butt" stroke-miterlimit="10.0"><path d="M 33.3333,166.6667 l 66.6667,-133.3333 "/></g><g stroke-linejoin="miter" stroke-opacity="1.0" fill-opacity="1.0" stroke="rgb(0,0,0)" stroke-width="0.0" fill="rgb(255,0,0)" stroke-linecap="butt" stroke-miterlimit="10.0"><path d="M 40.0000,166.6667 c 0.0000,-3.6819 -2.9848,-6.6667 -6.6667 -6.6667c -3.6819,-0.0000 -6.6667,2.9848 -6.6667 6.6667c -0.0000,3.6819 2.9848,6.6667 6.6667 6.6667c 3.6819,0.0000 6.6667,-2.9848 6.6667 -6.6667Z"/></g><g stroke-linejoin="miter" stroke-opacity="1.0" fill-opacity="1.0" stroke="rgb(0,0,0)" stroke-width="0.0" fill="rgb(255,0,0)" stroke-linecap="butt" stroke-miterlimit="10.0"><path d="M 106.6667,33.3333 c 0.0000,-3.6819 -2.9848,-6.6667 -6.6667 -6.6667c -3.6819,-0.0000 -6.6667,2.9848 -6.6667 6.6667c -0.0000,3.6819 2.9848,6.6667 6.6667 6.6667c 3.6819,0.0000 6.6667,-2.9848 6.6667 -6.6667Z"/></g><g stroke-linejoin="miter" stroke-opacity="1.0" fill-opacity="0.0" stroke="rgb(255,0,0)" stroke-width="1.5" fill="rgb(0,0,0)" stroke-linecap="butt" stroke-miterlimit="10.0"><path d="M 166.6667,100.0000 l -133.3333,-66.6667 "/></g><g stroke-linejoin="miter" stroke-opacity="1.0" fill-opacity="1.0" stroke="rgb(0,0,0)" stroke-width="0.0" fill="rgb(255,0,0)" stroke-linecap="butt" stroke-miterlimit="10.0"><path d="M 173.3333,100.0000 c 0.0000,-3.6819 -2.9848,-6.6667 -6.6667 -6.6667c -3.6819,-0.0000 -6.6667,2.9848 -6.6667 6.6667c -0.0000,3.6819 2.9848,6.6667 6.6667 6.6667c 3.6819,0.0000 6.6667,-2.9848 6.6667 -6.6667Z"/></g><g stroke-linejoin="miter" stroke-opacity="1.0" fill-opacity="1.0" stroke="rgb(0,0,0)" stroke-width="0.0" fill="rgb(255,0,0)" stroke-linecap="butt" stroke-miterlimit="10.0"><path d="M 40.0000,33.3333 c 0.0000,-3.6819 -2.9848,-6.6667 -6.6667 -6.6667c -3.6819,-0.0000 -6.6667,2.9848 -6.6667 6.6667c -0.0000,3.6819 2.9848,6.6667 6.6667 6.6667c 3.6819,0.0000 6.6667,-2.9848 6.6667 -6.6667Z"/></g><g stroke-linejoin="miter" stroke-opacity="1.0" fill-opacity="0.0" stroke="rgb(255,0,0)" stroke-width="1.5" fill="rgb(0,0,0)" stroke-linecap="butt" stroke-miterlimit="10.0"><path d="M 100.0000,166.6667 l -66.6667,-133.3333 "/></g><g stroke-linejoin="miter" stroke-opacity="1.0" fill-opacity="1.0" stroke="rgb(0,0,0)" stroke-width="0.0" fill="rgb(255,0,0)" stroke-linecap="butt" stroke-miterlimit="10.0"><path d="M 106.6667,166.6667 c 0.0000,-3.6819 -2.9848,-6.6667 -6.6667 -6.6667c -3.6819,-0.0000 -6.6667,2.9848 -6.6667 6.6667c -0.0000,3.6819 2.9848,6.6667 6.6667 6.6667c 3.6819,0.0000 6.6667,-2.9848 6.6667 -6.6667Z"/></g><g stroke-linejoin="miter" stroke-opacity="1.0" fill-opacity="1.0" stroke="rgb(0,0,0)" stroke-width="0.0" fill="rgb(255,0,0)" stroke-linecap="butt" stroke-miterlimit="10.0"><path d="M 40.0000,33.3333 c 0.0000,-3.6819 -2.9848,-6.6667 -6.6667 -6.6667c -3.6819,-0.0000 -6.6667,2.9848 -6.6667 6.6667c -0.0000,3.6819 2.9848,6.6667 6.6667 6.6667c 3.6819,0.0000 6.6667,-2.9848 6.6667 -6.6667Z"/></g><g stroke-linejoin="miter" stroke-opacity="1.0" fill-opacity="0.0" stroke="rgb(255,0,0)" stroke-width="1.5" fill="rgb(0,0,0)" stroke-linecap="butt" stroke-miterlimit="10.0"><path d="M 233.3333,166.6667 l 133.3333,-66.6667 "/></g><g stroke-linejoin="miter" stroke-opacity="1.0" fill-opacity="1.0" stroke="rgb(0,0,0)" stroke-width="0.0" fill="rgb(255,0,0)" stroke-linecap="butt" stroke-miterlimit="10.0"><path d="M 240.0000,166.6667 c 0.0000,-3.6819 -2.9848,-6.6667 -6.6667 -6.6667c -3.6819,-0.0000 -6.6667,2.9848 -6.6667 6.6667c -0.0000,3.6819 2.9848,6.6667 6.6667 6.6667c 3.6819,0.0000 6.6667,-2.9848 6.6667 -6.6667Z"/></g><g stroke-linejoin="miter" stroke-opacity="1.0" fill-opacity="1.0" stroke="rgb(0,0,0)" stroke-width="0.0" fill="rgb(255,0,0)" stroke-linecap="butt" stroke-miterlimit="10.0"><path d="M 373.3333,100.0000 c 0.0000,-3.6819 -2.9848,-6.6667 -6.6667 -6.6667c -3.6819,-0.0000 -6.6667,2.9848 -6.6667 6.6667c -0.0000,3.6819 2.9848,6.6667 6.6667 6.6667c 3.6819,0.0000 6.6667,-2.9848 6.6667 -6.6667Z"/></g><g stroke-linejoin="miter" stroke-opacity="1.0" fill-opacity="0.0" stroke="rgb(255,0,0)" stroke-width="1.5" fill="rgb(0,0,0)" stroke-linecap="butt" stroke-miterlimit="10.0"><path d="M 366.6667,233.3333 l -66.6667,-133.3333 "/></g><g stroke-linejoin="miter" stroke-opacity="1.0" fill-opacity="1.0" stroke="rgb(0,0,0)" stroke-width="0.0" fill="rgb(255,0,0)" stroke-linecap="butt" stroke-miterlimit="10.0"><path d="M 373.3333,233.3333 c 0.0000,-3.6819 -2.9848,-6.6667 -6.6667 -6.6667c -3.6819,-0.0000 -6.6667,2.9848 -6.6667 6.6667c -0.0000,3.6819 2.9848,6.6667 6.6667 6.6667c 3.6819,0.0000 6.6667,-2.9848 6.6667 -6.6667Z"/></g><g stroke-linejoin="miter" stroke-opacity="1.0" fill-opacity="1.0" stroke="rgb(0,0,0)" stroke-width="0.0" fill="rgb(255,0,0)" stroke-linecap="butt" stroke-miterlimit="10.0"><path d="M 306.6667,100.0000 c 0.0000,-3.6819 -2.9848,-6.6667 -6.6667 -6.6667c -3.6819,-0.0000 -6.6667,2.9848 -6.6667 6.6667c -0.0000,3.6819 2.9848,6.6667 6.6667 6.6667c 3.6819,0.0000 6.6667,-2.9848 6.6667 -6.6667Z"/></g><g stroke-linejoin="miter" stroke-opacity="1.0" fill-opacity="0.0" stroke="rgb(255,0,0)" stroke-width="1.5" fill="rgb(0,0,0)" stroke-linecap="butt" stroke-miterlimit="10.0"><path d="M 166.6667,233.3333 l -66.6667,-133.3333 "/></g><g stroke-linejoin="miter" stroke-opacity="1.0" fill-opacity="1.0" stroke="rgb(0,0,0)" stroke-width="0.0" fill="rgb(255,0,0)" stroke-linecap="butt" stroke-miterlimit="10.0"><path d="M 173.3333,233.3333 c 0.0000,-3.6819 -2.9848,-6.6667 -6.6667 -6.6667c -3.6819,-0.0000 -6.6667,2.9848 -6.6667 6.6667c -0.0000,3.6819 2.9848,6.6667 6.6667 6.6667c 3.6819,0.0000 6.6667,-2.9848 6.6667 -6.6667Z"/></g><g stroke-linejoin="miter" stroke-opacity="1.0" fill-opacity="1.0" stroke="rgb(0,0,0)" stroke-width="0.0" fill="rgb(255,0,0)" stroke-linecap="butt" stroke-miterlimit="10.0"><path d="M 106.6667,100.0000 c 0.0000,-3.6819 -2.9848,-6.6667 -6.6667 -6.6667c -3.6819,-0.0000 -6.6667,2.9848 -6.6667 6.6667c -0.0000,3.6819 2.9848,6.6667 6.6667 6.6667c 3.6819,0.0000 6.6667,-2.9848 6.6667 -6.6667Z"/></g><g stroke-linejoin="miter" stroke-opacity="1.0" fill-opacity="0.0" stroke="rgb(255,0,0)" stroke-width="1.5" fill="rgb(0,0,0)" stroke-linecap="butt" stroke-miterlimit="10.0"><path d="M 166.6667,166.6667 l -133.3333,-66.6667 "/></g><g stroke-linejoin="miter" stroke-opacity="1.0" fill-opacity="1.0" stroke="rgb(0,0,0)" stroke-width="0.0" fill="rgb(255,0,0)" stroke-linecap="butt" stroke-miterlimit="10.0"><path d="M 173.3333,166.6667 c 0.0000,-3.6819 -2.9848,-6.6667 -6.6667 -6.6667c -3.6819,-0.0000 -6.6667,2.9848 -6.6667 6.6667c -0.0000,3.6819 2.9848,6.6667 6.6667 6.6667c 3.6819,0.0000 6.6667,-2.9848 6.6667 -6.6667Z"/></g><g stroke-linejoin="miter" stroke-opacity="1.0" fill-opacity="1.0" stroke="rgb(0,0,0)" stroke-width="0.0" fill="rgb(255,0,0)" stroke-linecap="butt" stroke-miterlimit="10.0"><path d="M 40.0000,100.0000 c 0.0000,-3.6819 -2.9848,-6.6667 -6.6667 -6.6667c -3.6819,-0.0000 -6.6667,2.9848 -6.6667 6.6667c -0.0000,3.6819 2.9848,6.6667 6.6667 6.6667c 3.6819,0.0000 6.6667,-2.9848 6.6667 -6.6667Z"/></g><g stroke-linejoin="miter" stroke-opacity="1.0" fill-opacity="0.0" stroke="rgb(255,0,0)" stroke-width="1.5" fill="rgb(0,0,0)" stroke-linecap="butt" stroke-miterlimit="10.0"><path d="M 100.0000,233.3333 l -66.6667,-133.3333 "/></g><g stroke-linejoin="miter" stroke-opacity="1.0" fill-opacity="1.0" stroke="rgb(0,0,0)" stroke-width="0.0" fill="rgb(255,0,0)" stroke-linecap="butt" stroke-miterlimit="10.0"><path d="M 106.6667,233.3333 c 0.0000,-3.6819 -2.9848,-6.6667 -6.6667 -6.6667c -3.6819,-0.0000 -6.6667,2.9848 -6.6667 6.6667c -0.0000,3.6819 2.9848,6.6667 6.6667 6.6667c 3.6819,0.0000 6.6667,-2.9848 6.6667 -6.6667Z"/></g><g stroke-linejoin="miter" stroke-opacity="1.0" fill-opacity="1.0" stroke="rgb(0,0,0)" stroke-width="0.0" fill="rgb(255,0,0)" stroke-linecap="butt" stroke-miterlimit="10.0"><path d="M 40.0000,100.0000 c 0.0000,-3.6819 -2.9848,-6.6667 -6.6667 -6.6667c -3.6819,-0.0000 -6.6667,2.9848 -6.6667 6.6667c -0.0000,3.6819 2.9848,6.6667 6.6667 6.6667c 3.6819,0.0000 6.6667,-2.9848 6.6667 -6.6667Z"/></g><g stroke-linejoin="miter" stroke-opacity="1.0" fill-opacity="0.0" stroke="rgb(255,0,0)" stroke-width="1.5" fill="rgb(0,0,0)" stroke-linecap="butt" stroke-miterlimit="10.0"><path d="M 300.0000,300.0000 l 66.6667,-133.3333 "/></g><g stroke-linejoin="miter" stroke-opacity="1.0" fill-opacity="1.0" stroke="rgb(0,0,0)" stroke-width="0.0" fill="rgb(255,0,0)" stroke-linecap="butt" stroke-miterlimit="10.0"><path d="M 306.6667,300.0000 c 0.0000,-3.6819 -2.9848,-6.6667 -6.6667 -6.6667c -3.6819,-0.0000 -6.6667,2.9848 -6.6667 6.6667c -0.0000,3.6819 2.9848,6.6667 6.6667 6.6667c 3.6819,0.0000 6.6667,-2.9848 6.6667 -6.6667Z"/></g><g stroke-linejoin="miter" stroke-opacity="1.0" fill-opacity="1.0" stroke="rgb(0,0,0)" stroke-width="0.0" fill="rgb(255,0,0)" stroke-linecap="butt" stroke-miterlimit="10.0"><path d="M 373.3333,166.6667 c 0.0000,-3.6819 -2.9848,-6.6667 -6.6667 -6.6667c -3.6819,-0.0000 -6.6667,2.9848 -6.6667 6.6667c -0.0000,3.6819 2.9848,6.6667 6.6667 6.6667c 3.6819,0.0000 6.6667,-2.9848 6.6667 -6.6667Z"/></g><g stroke-linejoin="miter" stroke-opacity="1.0" fill-opacity="0.0" stroke="rgb(255,0,0)" stroke-width="1.5" fill="rgb(0,0,0)" stroke-linecap="butt" stroke-miterlimit="10.0"><path d="M 366.6667,300.0000 l -66.6667,-133.3333 "/></g><g stroke-linejoin="miter" stroke-opacity="1.0" fill-opacity="1.0" stroke="rgb(0,0,0)" stroke-width="0.0" fill="rgb(255,0,0)" stroke-linecap="butt" stroke-miterlimit="10.0"><path d="M 373.3333,300.0000 c 0.0000,-3.6819 -2.9848,-6.6667 -6.6667 -6.6667c -3.6819,-0.0000 -6.6667,2.9848 -6.6667 6.6667c -0.0000,3.6819 2.9848,6.6667 6.6667 6.6667c 3.6819,0.0000 6.6667,-2.9848 6.6667 -6.6667Z"/></g><g stroke-linejoin="miter" stroke-opacity="1.0" fill-opacity="1.0" stroke="rgb(0,0,0)" stroke-width="0.0" fill="rgb(255,0,0)" stroke-linecap="butt" stroke-miterlimit="10.0"><path d="M 306.6667,166.6667 c 0.0000,-3.6819 -2.9848,-6.6667 -6.6667 -6.6667c -3.6819,-0.0000 -6.6667,2.9848 -6.6667 6.6667c -0.0000,3.6819 2.9848,6.6667 6.6667 6.6667c 3.6819,0.0000 6.6667,-2.9848 6.6667 -6.6667Z"/></g><g stroke-linejoin="miter" stroke-opacity="1.0" fill-opacity="0.0" stroke="rgb(255,0,0)" stroke-width="1.5" fill="rgb(0,0,0)" stroke-linecap="butt" stroke-miterlimit="10.0"><path d="M 33.3333,233.3333 l 133.3333,-66.6667 "/></g><g stroke-linejoin="miter" stroke-opacity="1.0" fill-opacity="1.0" stroke="rgb(0,0,0)" stroke-width="0.0" fill="rgb(255,0,0)" stroke-linecap="butt" stroke-miterlimit="10.0"><path d="M 40.0000,233.3333 c 0.0000,-3.6819 -2.9848,-6.6667 -6.6667 -6.6667c -3.6819,-0.0000 -6.6667,2.9848 -6.6667 6.6667c -0.0000,3.6819 2.9848,6.6667 6.6667 6.6667c 3.6819,0.0000 6.6667,-2.9848 6.6667 -6.6667Z"/></g><g stroke-linejoin="miter" stroke-opacity="1.0" fill-opacity="1.0" stroke="rgb(0,0,0)" stroke-width="0.0" fill="rgb(255,0,0)" stroke-linecap="butt" stroke-miterlimit="10.0"><path d="M 173.3333,166.6667 c 0.0000,-3.6819 -2.9848,-6.6667 -6.6667 -6.6667c -3.6819,-0.0000 -6.6667,2.9848 -6.6667 6.6667c -0.0000,3.6819 2.9848,6.6667 6.6667 6.6667c 3.6819,0.0000 6.6667,-2.9848 6.6667 -6.6667Z"/></g><g stroke-linejoin="miter" stroke-opacity="1.0" fill-opacity="0.0" stroke="rgb(255,0,0)" stroke-width="1.5" fill="rgb(0,0,0)" stroke-linecap="butt" stroke-miterlimit="10.0"><path d="M 233.3333,233.3333 l -133.3333,-66.6667 "/></g><g stroke-linejoin="miter" stroke-opacity="1.0" fill-opacity="1.0" stroke="rgb(0,0,0)" stroke-width="0.0" fill="rgb(255,0,0)" stroke-linecap="butt" stroke-miterlimit="10.0"><path d="M 240.0000,233.3333 c 0.0000,-3.6819 -2.9848,-6.6667 -6.6667 -6.6667c -3.6819,-0.0000 -6.6667,2.9848 -6.6667 6.6667c -0.0000,3.6819 2.9848,6.6667 6.6667 6.6667c 3.6819,0.0000 6.6667,-2.9848 6.6667 -6.6667Z"/></g><g stroke-linejoin="miter" stroke-opacity="1.0" fill-opacity="1.0" stroke="rgb(0,0,0)" stroke-width="0.0" fill="rgb(255,0,0)" stroke-linecap="butt" stroke-miterlimit="10.0"><path d="M 106.6667,166.6667 c 0.0000,-3.6819 -2.9848,-6.6667 -6.6667 -6.6667c -3.6819,-0.0000 -6.6667,2.9848 -6.6667 6.6667c -0.0000,3.6819 2.9848,6.6667 6.6667 6.6667c 3.6819,0.0000 6.6667,-2.9848 6.6667 -6.6667Z"/></g><g stroke-linejoin="miter" stroke-opacity="1.0" fill-opacity="0.0" stroke="rgb(255,0,0)" stroke-width="1.5" fill="rgb(0,0,0)" stroke-linecap="butt" stroke-miterlimit="10.0"><path d="M 100.0000,300.0000 l -66.6667,-133.3333 "/></g><g stroke-linejoin="miter" stroke-opacity="1.0" fill-opacity="1.0" stroke="rgb(0,0,0)" stroke-width="0.0" fill="rgb(255,0,0)" stroke-linecap="butt" stroke-miterlimit="10.0"><path d="M 106.6667,300.0000 c 0.0000,-3.6819 -2.9848,-6.6667 -6.6667 -6.6667c -3.6819,-0.0000 -6.6667,2.9848 -6.6667 6.6667c -0.0000,3.6819 2.9848,6.6667 6.6667 6.6667c 3.6819,0.0000 6.6667,-2.9848 6.6667 -6.6667Z"/></g><g stroke-linejoin="miter" stroke-opacity="1.0" fill-opacity="1.0" stroke="rgb(0,0,0)" stroke-width="0.0" fill="rgb(255,0,0)" stroke-linecap="butt" stroke-miterlimit="10.0"><path d="M 40.0000,166.6667 c 0.0000,-3.6819 -2.9848,-6.6667 -6.6667 -6.6667c -3.6819,-0.0000 -6.6667,2.9848 -6.6667 6.6667c -0.0000,3.6819 2.9848,6.6667 6.6667 6.6667c 3.6819,0.0000 6.6667,-2.9848 6.6667 -6.6667Z"/></g><g stroke-linejoin="miter" stroke-opacity="1.0" fill-opacity="0.0" stroke="rgb(255,0,0)" stroke-width="1.5" fill="rgb(0,0,0)" stroke-linecap="butt" stroke-miterlimit="10.0"><path d="M 300.0000,366.6667 l 66.6667,-133.3333 "/></g><g stroke-linejoin="miter" stroke-opacity="1.0" fill-opacity="1.0" stroke="rgb(0,0,0)" stroke-width="0.0" fill="rgb(255,0,0)" stroke-linecap="butt" stroke-miterlimit="10.0"><path d="M 306.6667,366.6667 c 0.0000,-3.6819 -2.9848,-6.6667 -6.6667 -6.6667c -3.6819,-0.0000 -6.6667,2.9848 -6.6667 6.6667c -0.0000,3.6819 2.9848,6.6667 6.6667 6.6667c 3.6819,0.0000 6.6667,-2.9848 6.6667 -6.6667Z"/></g><g stroke-linejoin="miter" stroke-opacity="1.0" fill-opacity="1.0" stroke="rgb(0,0,0)" stroke-width="0.0" fill="rgb(255,0,0)" stroke-linecap="butt" stroke-miterlimit="10.0"><path d="M 373.3333,233.3333 c 0.0000,-3.6819 -2.9848,-6.6667 -6.6667 -6.6667c -3.6819,-0.0000 -6.6667,2.9848 -6.6667 6.6667c -0.0000,3.6819 2.9848,6.6667 6.6667 6.6667c 3.6819,0.0000 6.6667,-2.9848 6.6667 -6.6667Z"/></g><g stroke-linejoin="miter" stroke-opacity="1.0" fill-opacity="0.0" stroke="rgb(255,0,0)" stroke-width="1.5" fill="rgb(0,0,0)" stroke-linecap="butt" stroke-miterlimit="10.0"><path d="M 366.6667,366.6667 l -66.6667,-133.3333 "/></g><g stroke-linejoin="miter" stroke-opacity="1.0" fill-opacity="1.0" stroke="rgb(0,0,0)" stroke-width="0.0" fill="rgb(255,0,0)" stroke-linecap="butt" stroke-miterlimit="10.0"><path d="M 373.3333,366.6667 c 0.0000,-3.6819 -2.9848,-6.6667 -6.6667 -6.6667c -3.6819,-0.0000 -6.6667,2.9848 -6.6667 6.6667c -0.0000,3.6819 2.9848,6.6667 6.6667 6.6667c 3.6819,0.0000 6.6667,-2.9848 6.6667 -6.6667Z"/></g><g stroke-linejoin="miter" stroke-opacity="1.0" fill-opacity="1.0" stroke="rgb(0,0,0)" stroke-width="0.0" fill="rgb(255,0,0)" stroke-linecap="butt" stroke-miterlimit="10.0"><path d="M 306.6667,233.3333 c 0.0000,-3.6819 -2.9848,-6.6667 -6.6667 -6.6667c -3.6819,-0.0000 -6.6667,2.9848 -6.6667 6.6667c -0.0000,3.6819 2.9848,6.6667 6.6667 6.6667c 3.6819,0.0000 6.6667,-2.9848 6.6667 -6.6667Z"/></g><g stroke-linejoin="miter" stroke-opacity="1.0" fill-opacity="0.0" stroke="rgb(255,0,0)" stroke-width="1.5" fill="rgb(0,0,0)" stroke-linecap="butt" stroke-miterlimit="10.0"><path d="M 233.3333,366.6667 l 66.6667,-133.3333 "/></g><g stroke-linejoin="miter" stroke-opacity="1.0" fill-opacity="1.0" stroke="rgb(0,0,0)" stroke-width="0.0" fill="rgb(255,0,0)" stroke-linecap="butt" stroke-miterlimit="10.0"><path d="M 240.0000,366.6667 c 0.0000,-3.6819 -2.9848,-6.6667 -6.6667 -6.6667c -3.6819,-0.0000 -6.6667,2.9848 -6.6667 6.6667c -0.0000,3.6819 2.9848,6.6667 6.6667 6.6667c 3.6819,0.0000 6.6667,-2.9848 6.6667 -6.6667Z"/></g><g stroke-linejoin="miter" stroke-opacity="1.0" fill-opacity="1.0" stroke="rgb(0,0,0)" stroke-width="0.0" fill="rgb(255,0,0)" stroke-linecap="butt" stroke-miterlimit="10.0"><path d="M 306.6667,233.3333 c 0.0000,-3.6819 -2.9848,-6.6667 -6.6667 -6.6667c -3.6819,-0.0000 -6.6667,2.9848 -6.6667 6.6667c -0.0000,3.6819 2.9848,6.6667 6.6667 6.6667c 3.6819,0.0000 6.6667,-2.9848 6.6667 -6.6667Z"/></g><g stroke-linejoin="miter" stroke-opacity="1.0" fill-opacity="0.0" stroke="rgb(255,0,0)" stroke-width="1.5" fill="rgb(0,0,0)" stroke-linecap="butt" stroke-miterlimit="10.0"><path d="M 366.6667,300.0000 l -133.3333,-66.6667 "/></g><g stroke-linejoin="miter" stroke-opacity="1.0" fill-opacity="1.0" stroke="rgb(0,0,0)" stroke-width="0.0" fill="rgb(255,0,0)" stroke-linecap="butt" stroke-miterlimit="10.0"><path d="M 373.3333,300.0000 c 0.0000,-3.6819 -2.9848,-6.6667 -6.6667 -6.6667c -3.6819,-0.0000 -6.6667,2.9848 -6.6667 6.6667c -0.0000,3.6819 2.9848,6.6667 6.6667 6.6667c 3.6819,0.0000 6.6667,-2.9848 6.6667 -6.6667Z"/></g><g stroke-linejoin="miter" stroke-opacity="1.0" fill-opacity="1.0" stroke="rgb(0,0,0)" stroke-width="0.0" fill="rgb(255,0,0)" stroke-linecap="butt" stroke-miterlimit="10.0"><path d="M 240.0000,233.3333 c 0.0000,-3.6819 -2.9848,-6.6667 -6.6667 -6.6667c -3.6819,-0.0000 -6.6667,2.9848 -6.6667 6.6667c -0.0000,3.6819 2.9848,6.6667 6.6667 6.6667c 3.6819,0.0000 6.6667,-2.9848 6.6667 -6.6667Z"/></g><g stroke-linejoin="miter" stroke-opacity="1.0" fill-opacity="0.0" stroke="rgb(255,0,0)" stroke-width="1.5" fill="rgb(0,0,0)" stroke-linecap="butt" stroke-miterlimit="10.0"><path d="M 33.3333,300.0000 l 133.3333,-66.6667 "/></g><g stroke-linejoin="miter" stroke-opacity="1.0" fill-opacity="1.0" stroke="rgb(0,0,0)" stroke-width="0.0" fill="rgb(255,0,0)" stroke-linecap="butt" stroke-miterlimit="10.0"><path d="M 40.0000,300.0000 c 0.0000,-3.6819 -2.9848,-6.6667 -6.6667 -6.6667c -3.6819,-0.0000 -6.6667,2.9848 -6.6667 6.6667c -0.0000,3.6819 2.9848,6.6667 6.6667 6.6667c 3.6819,0.0000 6.6667,-2.9848 6.6667 -6.6667Z"/></g><g stroke-linejoin="miter" stroke-opacity="1.0" fill-opacity="1.0" stroke="rgb(0,0,0)" stroke-width="0.0" fill="rgb(255,0,0)" stroke-linecap="butt" stroke-miterlimit="10.0"><path d="M 173.3333,233.3333 c 0.0000,-3.6819 -2.9848,-6.6667 -6.6667 -6.6667c -3.6819,-0.0000 -6.6667,2.9848 -6.6667 6.6667c -0.0000,3.6819 2.9848,6.6667 6.6667 6.6667c 3.6819,0.0000 6.6667,-2.9848 6.6667 -6.6667Z"/></g><g stroke-linejoin="miter" stroke-opacity="1.0" fill-opacity="0.0" stroke="rgb(255,0,0)" stroke-width="1.5" fill="rgb(0,0,0)" stroke-linecap="butt" stroke-miterlimit="10.0"><path d="M 33.3333,366.6667 l 66.6667,-133.3333 "/></g><g stroke-linejoin="miter" stroke-opacity="1.0" fill-opacity="1.0" stroke="rgb(0,0,0)" stroke-width="0.0" fill="rgb(255,0,0)" stroke-linecap="butt" stroke-miterlimit="10.0"><path d="M 40.0000,366.6667 c 0.0000,-3.6819 -2.9848,-6.6667 -6.6667 -6.6667c -3.6819,-0.0000 -6.6667,2.9848 -6.6667 6.6667c -0.0000,3.6819 2.9848,6.6667 6.6667 6.6667c 3.6819,0.0000 6.6667,-2.9848 6.6667 -6.6667Z"/></g><g stroke-linejoin="miter" stroke-opacity="1.0" fill-opacity="1.0" stroke="rgb(0,0,0)" stroke-width="0.0" fill="rgb(255,0,0)" stroke-linecap="butt" stroke-miterlimit="10.0"><path d="M 106.6667,233.3333 c 0.0000,-3.6819 -2.9848,-6.6667 -6.6667 -6.6667c -3.6819,-0.0000 -6.6667,2.9848 -6.6667 6.6667c -0.0000,3.6819 2.9848,6.6667 6.6667 6.6667c 3.6819,0.0000 6.6667,-2.9848 6.6667 -6.6667Z"/></g><g stroke-linejoin="miter" stroke-opacity="1.0" fill-opacity="0.0" stroke="rgb(255,0,0)" stroke-width="1.5" fill="rgb(0,0,0)" stroke-linecap="butt" stroke-miterlimit="10.0"><path d="M 100.0000,366.6667 l -66.6667,-133.3333 "/></g><g stroke-linejoin="miter" stroke-opacity="1.0" fill-opacity="1.0" stroke="rgb(0,0,0)" stroke-width="0.0" fill="rgb(255,0,0)" stroke-linecap="butt" stroke-miterlimit="10.0"><path d="M 106.6667,366.6667 c 0.0000,-3.6819 -2.9848,-6.6667 -6.6667 -6.6667c -3.6819,-0.0000 -6.6667,2.9848 -6.6667 6.6667c -0.0000,3.6819 2.9848,6.6667 6.6667 6.6667c 3.6819,0.0000 6.6667,-2.9848 6.6667 -6.6667Z"/></g><g stroke-linejoin="miter" stroke-opacity="1.0" fill-opacity="1.0" stroke="rgb(0,0,0)" stroke-width="0.0" fill="rgb(255,0,0)" stroke-linecap="butt" stroke-miterlimit="10.0"><path d="M 40.0000,233.3333 c 0.0000,-3.6819 -2.9848,-6.6667 -6.6667 -6.6667c -3.6819,-0.0000 -6.6667,2.9848 -6.6667 6.6667c -0.0000,3.6819 2.9848,6.6667 6.6667 6.6667c 3.6819,0.0000 6.6667,-2.9848 6.6667 -6.6667Z"/></g><g stroke-linejoin="miter" stroke-opacity="1.0" fill-opacity="0.0" stroke="rgb(255,0,0)" stroke-width="1.5" fill="rgb(0,0,0)" stroke-linecap="butt" stroke-miterlimit="10.0"><path d="M 166.6667,366.6667 l 133.3333,-66.6667 "/></g><g stroke-linejoin="miter" stroke-opacity="1.0" fill-opacity="1.0" stroke="rgb(0,0,0)" stroke-width="0.0" fill="rgb(255,0,0)" stroke-linecap="butt" stroke-miterlimit="10.0"><path d="M 173.3333,366.6667 c 0.0000,-3.6819 -2.9848,-6.6667 -6.6667 -6.6667c -3.6819,-0.0000 -6.6667,2.9848 -6.6667 6.6667c -0.0000,3.6819 2.9848,6.6667 6.6667 6.6667c 3.6819,0.0000 6.6667,-2.9848 6.6667 -6.6667Z"/></g><g stroke-linejoin="miter" stroke-opacity="1.0" fill-opacity="1.0" stroke="rgb(0,0,0)" stroke-width="0.0" fill="rgb(255,0,0)" stroke-linecap="butt" stroke-miterlimit="10.0"><path d="M 306.6667,300.0000 c 0.0000,-3.6819 -2.9848,-6.6667 -6.6667 -6.6667c -3.6819,-0.0000 -6.6667,2.9848 -6.6667 6.6667c -0.0000,3.6819 2.9848,6.6667 6.6667 6.6667c 3.6819,0.0000 6.6667,-2.9848 6.6667 -6.6667Z"/></g><g stroke-linejoin="miter" stroke-opacity="1.0" fill-opacity="0.0" stroke="rgb(255,0,0)" stroke-width="1.5" fill="rgb(0,0,0)" stroke-linecap="butt" stroke-miterlimit="10.0"><path d="M 366.6667,366.6667 l -133.3333,-66.6667 "/></g><g stroke-linejoin="miter" stroke-opacity="1.0" fill-opacity="1.0" stroke="rgb(0,0,0)" stroke-width="0.0" fill="rgb(255,0,0)" stroke-linecap="butt" stroke-miterlimit="10.0"><path d="M 373.3333,366.6667 c 0.0000,-3.6819 -2.9848,-6.6667 -6.6667 -6.6667c -3.6819,-0.0000 -6.6667,2.9848 -6.6667 6.6667c -0.0000,3.6819 2.9848,6.6667 6.6667 6.6667c 3.6819,0.0000 6.6667,-2.9848 6.6667 -6.6667Z"/></g><g stroke-linejoin="miter" stroke-opacity="1.0" fill-opacity="1.0" stroke="rgb(0,0,0)" stroke-width="0.0" fill="rgb(255,0,0)" stroke-linecap="butt" stroke-miterlimit="10.0"><path d="M 240.0000,300.0000 c 0.0000,-3.6819 -2.9848,-6.6667 -6.6667 -6.6667c -3.6819,-0.0000 -6.6667,2.9848 -6.6667 6.6667c -0.0000,3.6819 2.9848,6.6667 6.6667 6.6667c 3.6819,0.0000 6.6667,-2.9848 6.6667 -6.6667Z"/></g><g stroke-linejoin="miter" stroke-opacity="1.0" fill-opacity="0.0" stroke="rgb(255,0,0)" stroke-width="1.5" fill="rgb(0,0,0)" stroke-linecap="butt" stroke-miterlimit="10.0"><path d="M 100.0000,366.6667 l 133.3333,-66.6667 "/></g><g stroke-linejoin="miter" stroke-opacity="1.0" fill-opacity="1.0" stroke="rgb(0,0,0)" stroke-width="0.0" fill="rgb(255,0,0)" stroke-linecap="butt" stroke-miterlimit="10.0"><path d="M 106.6667,366.6667 c 0.0000,-3.6819 -2.9848,-6.6667 -6.6667 -6.6667c -3.6819,-0.0000 -6.6667,2.9848 -6.6667 6.6667c -0.0000,3.6819 2.9848,6.6667 6.6667 6.6667c 3.6819,0.0000 6.6667,-2.9848 6.6667 -6.6667Z"/></g><g stroke-linejoin="miter" stroke-opacity="1.0" fill-opacity="1.0" stroke="rgb(0,0,0)" stroke-width="0.0" fill="rgb(255,0,0)" stroke-linecap="butt" stroke-miterlimit="10.0"><path d="M 240.0000,300.0000 c 0.0000,-3.6819 -2.9848,-6.6667 -6.6667 -6.6667c -3.6819,-0.0000 -6.6667,2.9848 -6.6667 6.6667c -0.0000,3.6819 2.9848,6.6667 6.6667 6.6667c 3.6819,0.0000 6.6667,-2.9848 6.6667 -6.6667Z"/></g><g stroke-linejoin="miter" stroke-opacity="1.0" fill-opacity="0.0" stroke="rgb(255,0,0)" stroke-width="1.5" fill="rgb(0,0,0)" stroke-linecap="butt" stroke-miterlimit="10.0"><path d="M 300.0000,366.6667 l -133.3333,-66.6667 "/></g><g stroke-linejoin="miter" stroke-opacity="1.0" fill-opacity="1.0" stroke="rgb(0,0,0)" stroke-width="0.0" fill="rgb(255,0,0)" stroke-linecap="butt" stroke-miterlimit="10.0"><path d="M 306.6667,366.6667 c 0.0000,-3.6819 -2.9848,-6.6667 -6.6667 -6.6667c -3.6819,-0.0000 -6.6667,2.9848 -6.6667 6.6667c -0.0000,3.6819 2.9848,6.6667 6.6667 6.6667c 3.6819,0.0000 6.6667,-2.9848 6.6667 -6.6667Z"/></g><g stroke-linejoin="miter" stroke-opacity="1.0" fill-opacity="1.0" stroke="rgb(0,0,0)" stroke-width="0.0" fill="rgb(255,0,0)" stroke-linecap="butt" stroke-miterlimit="10.0"><path d="M 173.3333,300.0000 c 0.0000,-3.6819 -2.9848,-6.6667 -6.6667 -6.6667c -3.6819,-0.0000 -6.6667,2.9848 -6.6667 6.6667c -0.0000,3.6819 2.9848,6.6667 6.6667 6.6667c 3.6819,0.0000 6.6667,-2.9848 6.6667 -6.6667Z"/></g><g stroke-linejoin="miter" stroke-opacity="1.0" fill-opacity="0.0" stroke="rgb(255,0,0)" stroke-width="1.5" fill="rgb(0,0,0)" stroke-linecap="butt" stroke-miterlimit="10.0"><path d="M 33.3333,366.6667 l 133.3333,-66.6667 "/></g><g stroke-linejoin="miter" stroke-opacity="1.0" fill-opacity="1.0" stroke="rgb(0,0,0)" stroke-width="0.0" fill="rgb(255,0,0)" stroke-linecap="butt" stroke-miterlimit="10.0"><path d="M 40.0000,366.6667 c 0.0000,-3.6819 -2.9848,-6.6667 -6.6667 -6.6667c -3.6819,-0.0000 -6.6667,2.9848 -6.6667 6.6667c -0.0000,3.6819 2.9848,6.6667 6.6667 6.6667c 3.6819,0.0000 6.6667,-2.9848 6.6667 -6.6667Z"/></g><g stroke-linejoin="miter" stroke-opacity="1.0" fill-opacity="1.0" stroke="rgb(0,0,0)" stroke-width="0.0" fill="rgb(255,0,0)" stroke-linecap="butt" stroke-miterlimit="10.0"><path d="M 173.3333,300.0000 c 0.0000,-3.6819 -2.9848,-6.6667 -6.6667 -6.6667c -3.6819,-0.0000 -6.6667,2.9848 -6.6667 6.6667c -0.0000,3.6819 2.9848,6.6667 6.6667 6.6667c 3.6819,0.0000 6.6667,-2.9848 6.6667 -6.6667Z"/></g><g stroke-linejoin="miter" stroke-opacity="1.0" fill-opacity="0.0" stroke="rgb(255,0,0)" stroke-width="1.5" fill="rgb(0,0,0)" stroke-linecap="butt" stroke-miterlimit="10.0"><path d="M 233.3333,366.6667 l -133.3333,-66.6667 "/></g><g stroke-linejoin="miter" stroke-opacity="1.0" fill-opacity="1.0" stroke="rgb(0,0,0)" stroke-width="0.0" fill="rgb(255,0,0)" stroke-linecap="butt" stroke-miterlimit="10.0"><path d="M 240.0000,366.6667 c 0.0000,-3.6819 -2.9848,-6.6667 -6.6667 -6.6667c -3.6819,-0.0000 -6.6667,2.9848 -6.6667 6.6667c -0.0000,3.6819 2.9848,6.6667 6.6667 6.6667c 3.6819,0.0000 6.6667,-2.9848 6.6667 -6.6667Z"/></g><g stroke-linejoin="miter" stroke-opacity="1.0" fill-opacity="1.0" stroke="rgb(0,0,0)" stroke-width="0.0" fill="rgb(255,0,0)" stroke-linecap="butt" stroke-miterlimit="10.0"><path d="M 106.6667,300.0000 c 0.0000,-3.6819 -2.9848,-6.6667 -6.6667 -6.6667c -3.6819,-0.0000 -6.6667,2.9848 -6.6667 6.6667c -0.0000,3.6819 2.9848,6.6667 6.6667 6.6667c 3.6819,0.0000 6.6667,-2.9848 6.6667 -6.6667Z"/></g><g stroke-linejoin="miter" stroke-opacity="1.0" fill-opacity="0.0" stroke="rgb(255,0,0)" stroke-width="1.5" fill="rgb(0,0,0)" stroke-linecap="butt" stroke-miterlimit="10.0"><path d="M 166.6667,366.6667 l -133.3333,-66.6667 "/></g><g stroke-linejoin="miter" stroke-opacity="1.0" fill-opacity="1.0" stroke="rgb(0,0,0)" stroke-width="0.0" fill="rgb(255,0,0)" stroke-linecap="butt" stroke-miterlimit="10.0"><path d="M 173.3333,366.6667 c 0.0000,-3.6819 -2.9848,-6.6667 -6.6667 -6.6667c -3.6819,-0.0000 -6.6667,2.9848 -6.6667 6.6667c -0.0000,3.6819 2.9848,6.6667 6.6667 6.6667c 3.6819,0.0000 6.6667,-2.9848 6.6667 -6.6667Z"/></g><g stroke-linejoin="miter" stroke-opacity="1.0" fill-opacity="1.0" stroke="rgb(0,0,0)" stroke-width="0.0" fill="rgb(255,0,0)" stroke-linecap="butt" stroke-miterlimit="10.0"><path d="M 40.0000,300.0000 c 0.0000,-3.6819 -2.9848,-6.6667 -6.6667 -6.6667c -3.6819,-0.0000 -6.6667,2.9848 -6.6667 6.6667c -0.0000,3.6819 2.9848,6.6667 6.6667 6.6667c 3.6819,0.0000 6.6667,-2.9848 6.6667 -6.6667Z"/></g></svg>